static_grf.mot
version=1
nRows=10
nColumns 19
inDegrees=yes
endheader
time	1_ground_force_vx	1_ground_force_vy	1_ground_force_vz	1_ground_force_px	1_ground_force_py	1_ground_force_pz	1_ground_torque_x	1_ground_torque_y	1_ground_torque_z	2_ground_force_vx	2_ground_force_vy	2_ground_force_vz	2_ground_force_px	2_ground_force_py	2_ground_force_pz	2_ground_torque_x	2_ground_torque_y	2_ground_torque_z
            2.502500	            4.639662	          405.590884	          -38.489193	           -0.289016	            0.006128	           -0.385586	            0.021595	            1.887818	           -0.179147	           -4.984873	          385.119857	           30.940807	           -0.259102	            0.005674	           -0.732872	           -0.004590	            0.354643	            0.028492
            2.503000	            4.639156	          406.492771	          -38.622892	           -0.288381	            0.006128	           -0.385405	            0.021646	            1.896700	           -0.180215	           -5.318783	          386.775832	           30.993788	           -0.258752	            0.005676	           -0.733014	           -0.005449	            0.396242	            0.031752
            2.503500	            4.869140	          404.148802	          -38.495946	           -0.288755	            0.006130	           -0.386095	            0.023566	            1.956013	           -0.186314	           -5.221904	          385.856578	           30.661966	           -0.258870	            0.005675	           -0.733067	           -0.005815	            0.429659	            0.034143
            2.504000	            4.547520	          405.591652	          -38.672389	           -0.288839	            0.006129	           -0.385838	            0.021183	            1.889278	           -0.180139	           -4.986887	          385.672446	           30.895850	           -0.258664	            0.005676	           -0.732967	           -0.004032	            0.311788	            0.024977
            2.504500	            4.639368	          405.951808	          -38.579359	           -0.288769	            0.006129	           -0.385803	            0.022165	            1.939447	           -0.184314	           -5.266657	          385.303150	           30.894655	           -0.258905	            0.005674	           -0.732630	           -0.005603	            0.409895	            0.032867
            2.505000	            4.684999	          406.492780	          -38.623006	           -0.288434	            0.006127	           -0.385267	            0.021307	            1.848678	           -0.175653	           -5.172272	          385.119180	           30.940887	           -0.258814	            0.005674	           -0.732776	           -0.005136	            0.382403	            0.030723
            2.505500	            4.364212	          406.492521	          -38.576357	           -0.288401	            0.006127	           -0.385356	            0.020752	            1.932854	           -0.183429	           -4.895866	          386.409514	           30.851510	           -0.258909	            0.005675	           -0.732964	           -0.004115	            0.324746	            0.025928
            2.506000	            4.547667	          405.411159	          -38.627302	           -0.288944	            0.006128	           -0.385566	            0.021717	            1.935975	           -0.184458	           -4.984187	          384.935487	           30.987078	           -0.259255	            0.005673	           -0.732823	           -0.004152	            0.320681	            0.025815
            2.506500	            4.593540	          406.492369	          -38.531067	           -0.288705	            0.006128	           -0.385440	            0.021668	            1.917412	           -0.181750	           -5.079319	          385.304328	           30.753791	           -0.258987	            0.005674	           -0.732822	           -0.004415	            0.334882	            0.026729
            2.507000	            4.638733	          406.313322	          -38.807089	           -0.288499	            0.006129	           -0.385667	            0.021521	            1.885085	           -0.180045	           -5.223795	          386.408163	           30.898578	           -0.259018	            0.005674	           -0.732966	           -0.005159	            0.381635	            0.030517
